<svg xmlns="http://www.w3.org/2000/svg" viewBox="0 0 412.44 286.55"><defs><style>.cls-1{fill:#3f351c;}.cls-2{fill:gray;}.cls-3{fill:#ccc;}.cls-4{fill:#302307;}</style></defs><title>CATEXAM-DARK</title><g id="Layer_2" data-name="Layer 2"><g id="Layer_1-2" data-name="Layer 1"><path class="cls-1" d="M228.69,86.63h3.76q7.8,0,13.54,10.91,2.54,16.92,7.9,16.92,4.7,0,8.65-15,6.39-9.78,15.42-9.78h1.13q14.66,2.26,14.67,14.67v1.5q0,8-4.89,19.18a26.44,26.44,0,0,1,7.15,18.8v7.52q0,17.39-16.92,31.21-11.94,8.27-25.2,8.27-24.73,0-42.49-23.31-7.52-11.75-7.52-22.94,0-14.29,13.91-26.32a13.74,13.74,0,0,1-6.39-12q0-12.41,13.16-18.8A9.38,9.38,0,0,1,228.69,86.63ZM224.18,131v3.38q0,12.41,17.67,29.33,15,10.53,25.95,10.53,13,0,17.67-13.54a47.26,47.26,0,0,0,2.63-16.55,46,46,0,0,0-1.88-12.41q-18.43,34.6-30.46,34.6h-1.13q-8.56,0-16.92-15.79a20.09,20.09,0,0,1-1.5-7.52,24.58,24.58,0,0,1,4.89-14.29,11.7,11.7,0,0,1,7.9,3.38,9.11,9.11,0,0,0-1.5,4.51v1.5q0,7,10.53,8.65,11.37,0,21.06-19.55l1.13-1.88q-11-4.51-26.7-4.51h-9Q224.18,120.85,224.18,131ZM237,101.3l-.38.38v.38a13.49,13.49,0,0,1,1.88,6.77l-.75,2.63,5.26.38v-.38Q241.66,101.3,237,101.3Zm27.83,13.91v.38q7.52,0,18.43,4.51,3.76-5.26,3.76-8.27v-1.5q0-5-8.27-5.64Q268.93,104.68,264.79,115.21Z"/><path class="cls-1" d="M339.72,62.57q20.49,0,42.12,23.32,17.67,19.27,24.82,53l.75,9.4v8.27q0,22.56-18.8,33.09l-8.27,1.13q-12.5,0-20.68-11.66v-.38h-.75q-9.22,7.9-18.8,7.9-15.14,0-25.57-19.55-3.76-9.21-3.76-21.81,0-15.6,5.64-27.45l-.38.38h-.38q-8.65-2.91-15-15.42A38.07,38.07,0,0,1,298,90q0-22.56,32-27.45Zm-31.21,36.1v.75q0,7.33,9.4,16.17h.38q9-14.29,29-14.29a52.12,52.12,0,0,1,19.93,4.14l.38.38v4.14l.38,1.88-.38.38h-.38a122.74,122.74,0,0,0-15.79-1.5h-2.63q-15.14,0-19.55,11.28a20.87,20.87,0,0,0-1.13,6.39V131q0,14.95,13.16,26.32a10.43,10.43,0,0,0,4.51,1.5q6.39,0,6.39-16.92l-.38-8.65a9.38,9.38,0,0,1,4.14-.75h3.38q.75,0,.75,1.13,0,22.66,16.55,28.58l6.77,1.13q8.74,0,12-9.78a35.85,35.85,0,0,0,1.5-10.91q0-19.46-17.3-48.51-13.07-18.8-36.85-18.8h-.38q-19.84,0-30.84,13.91Q308.51,94.62,308.51,98.67Z"/><path class="cls-1" d="M91.81,0h16q34.43,0,63.29,25,10.43,14.08,10.43,24.34v5.56q0,18.09-23,38.25-12.52-3.65-12.52-4.87,16-17.74,16-32.69,0-19.82-44.51-26.43H103.63q-24.87,0-51.47,10.43v.7l3.48,5.56q84.68,0,128,112.67,9,30.08,9,48.69v16q0,39.64-32,59.81a50.3,50.3,0,0,1-17.39,3.48q-24,0-39.64-22.26Q85,278.9,68.86,278.9q-26.78,0-45.9-32-9-18.26-9-43.12v-.7q0-64.85,52.16-86.24A69.9,69.9,0,0,1,90.42,112q16,0,16,10.43,0,6.09-16.69,12.52-11.83,8.35-11.82,16.69a15.73,15.73,0,0,0,4.87,11.82q0-20.17,18.78-26.43L112,135.63q26.08,0,29.91,30.6,0,29.56-31.3,37.56h-4.87v.7q7,0,7,7,12.69,24.35,35.47,24.34,25,0,25-37.56,0-35.3-29.21-85.55Q117.37,73,66.77,73,34.6,73,9,93.89q-3.3,0-7.65-18.78,8.69-14.61,32-25V48q-8.52,0-31.3,18.78h-.7L0,65.38v-25Q22.08,14.26,72.33,2.09A85,85,0,0,1,91.81,0ZM45.9,172.49v2.78q0,28.17,26.43,50.08l6.26,1.39h.7q9,0,11.82-24.34H96v-.7q-8.52,0-22.26-19.47-5.57-12.87-5.56-23,0-18.95,17.39-34.08-11.3,0-27.12,12.52Q45.9,150.58,45.9,172.49Z"/><path class="cls-1" d="M259.74,240.6h2.92a16.54,16.54,0,0,1,8.51,2.67q4.13,3.28,4.13,7.78v2.68q-1.16,6.08-6.08,6.08-4.14,0-6.32-5.84v-.24q.49-5.11,3.4-5.11h1a2.86,2.86,0,0,1,2.43,1.46v.73q0,1.22-1.95,3.16a1.67,1.67,0,0,0,1.7,1H270q1.22-.73,1.22-3.16,0-5.84-9.48-6.81h-1q-8.51,1-8.51,5.59v.24q0,2.55,7.78,4.86,9.73,6,9.73,12.89v1.7q0,6.32-11.43,8.75h-.73q-4.92,0-10.46-4.86-4.32,4.38-8.75,4.38H236.4q-9.49,0-13.13-9.73l-.24-2.67v-.73a16.7,16.7,0,0,1,1-4.62h-.24l-4.62.24h-1.95q-2.19,0-2.19-2.92a2.6,2.6,0,0,1,1.46-2.19h4.13a3.43,3.43,0,0,1-1-2.43v-.24q0-5.17,9-6.57h1.22q9.06,0,16.05,8.27,2.19,1.76,2.19,3.16v.24q0,1.7-15.56,1.7l-3.65.24a10.45,10.45,0,0,0-1.46,5.11q1.95,8.76,9.49,8.75t7.54-8.27q0-4.62,2.92-4.62,1.64,0,2.68,2.43l-.49,3.89q0,5.84,8.75,6.81,5.78,0,6.81-5.59,0-4.38-8.27-8.75-10.21-4-10.21-8.76v-1.22q0-5.59,10.94-9.24ZM225,253.25a1.32,1.32,0,0,0,1,1q1.46-.49,1.46-1v-1.7A2.57,2.57,0,0,0,225,253.25Zm7.54-2.43v.24l.49,2.19a4.54,4.54,0,0,1-1,2.67h9q-3.47-5.11-6.81-5.11Z"/><path class="cls-1" d="M278.83,200.47h.73q1.09,0,1.46,15.81.3,0,.49,9.73,5.11,3.65,9.73,3.65,1.58,0,6.81-5.59.61,0,4.62-3.89-.91-5.35-4.62-5.35h-.24a5.62,5.62,0,0,1,1.46,2.92q0,3.28-4.62,4.13h-.49q-4.08,0-4.62-5.35,1.4-6.57,6.08-6.57h.73q6.81,0,10,7.78,10.82-7.48,17.75-8.51h.73a2.51,2.51,0,0,1,2.19,1.46v1.46q0,1.28-7.3,2.92a58.39,58.39,0,0,0-12.89,8q0,4.38-6.57,9.24-5.53,2-6.08,2.68-9.91,12.83-10.7,18.24h.24q6.87-4.86,16.78-4.86,15.14,0,19.94,11.43l.49,2.92v1.22q0,9.24-11.67,14.11a30.24,30.24,0,0,1-8,1q-18.3,0-23.59-12.65a14.83,14.83,0,0,1-1.22-5.59v-1.7q0-2.37,2.19-9l-.49-20.43q0-.85-3.89-5.35a22.35,22.35,0,0,1-2.67-9.73Q271.54,207.16,278.83,200.47Zm-1.7,9.48a11.51,11.51,0,0,0-1.22,4.62v1.22a9.12,9.12,0,0,0,1.7,5.35v-4.62l-.24-6.57ZM282,231.6v.49l.49,10h.24a68.42,68.42,0,0,1,5.59-8A19.75,19.75,0,0,1,282,231.6Zm0,30.4q4.5,11.67,17.27,11.67,11.67,0,16.05-6.57l.49-1.95q0-6.81-7.3-9.49a20.69,20.69,0,0,0-6.08-1h-2.68a27.38,27.38,0,0,0-16.05,5.11Z"/><path class="cls-2" d="M370,250.95a51.62,51.62,0,0,0,9.41-.29,156.28,156.28,0,0,0,17.14-21.25c-2.05.81-3.65.32-6,.1,0,0,2.56.34,6.94-1.43a191.36,191.36,0,0,0,12-20.39,170.32,170.32,0,0,0-20.89,11.15l-.08,2.18-1.46-1.2q-4.95,3.19-9.27,6.46c0,1.36-.05,2.9-.08,4.53a12.27,12.27,0,0,1-.9-3.78,143.15,143.15,0,0,0-14.21,12.42c-.48,2.39-1,5.07-1.2,6.65a20.12,20.12,0,0,1-.06-5.37,127,127,0,0,0-10.4,12.08,19.42,19.42,0,0,1-.45,3.91,17.88,17.88,0,0,1-.33-2.87c-6.68,9.07-9.27,15.36-9.27,15.36l1.49,1.49A42.47,42.47,0,0,0,362,264.57l-2.54-.11,3.21-.29a83.05,83.05,0,0,0,16-12.74A23.86,23.86,0,0,1,370,250.95Z"/><path class="cls-3" d="M397.41,228.08a195,195,0,0,0,11.86-20.14c-9.85,7.27-59.5,54.34-67.67,62.1l.67.67A42.47,42.47,0,0,0,362,264.57l-2.54-.11,3.21-.29a83.05,83.05,0,0,0,16-12.74,23.86,23.86,0,0,1-8.64-.48,51.62,51.62,0,0,0,9.41-.29,156.28,156.28,0,0,0,17.14-21.25c-2,.8-3.63.33-6,.1A15.76,15.76,0,0,0,397.41,228.08Z"/><path class="cls-3" d="M341,268.84l-.17.38.07.07Z"/><path class="cls-1" d="M401.19,215.34c-51.64,43.63-62.58,55.81-62.58,55.81s-.25-.9-.34-1.32l-6.18,9s8.95-4.91,11.62-5c0,0-3.67-.56-3.11-1.24C348.62,263.25,401.19,215.34,401.19,215.34Zm-65.94,61.21a.43.43,0,1,1,.44-.43A.43.43,0,0,1,335.25,276.55Z"/><path class="cls-4" d="M325.34,283.87s19.6-15.12,87.09-4.76C412.44,279.11,346.35,266.22,325.34,283.87Z"/></g></g></svg>